<svg xmlns="http://www.w3.org/2000/svg" version="1.1" xmlns:xlink="http://www.w3.org/1999/xlink" xmlns:svgjs="http://svgjs.dev/svgjs" width="2000" height="2000" viewBox="0 0 2000 2000"><g transform="matrix(1,0,0,1,0,0)"><svg viewBox="0 0 280 280" data-background-color="#ffffff" preserveAspectRatio="xMidYMid meet" height="2000" width="2000" xmlns="http://www.w3.org/2000/svg" xmlns:xlink="http://www.w3.org/1999/xlink"><g id="tight-bounds" transform="matrix(1,0,0,1,0,0)"><svg viewBox="0 0 280 280" height="280" width="280"><g><svg viewBox="0 0 280 280" height="280" width="280"><g transform="matrix(1,0,0,1,64.47981975972053,60.80404050710668)"><svg viewBox="0 0 151.04036048055895 158.39191898578665" height="158.39191898578665" width="151.04036048055895"><g><svg viewBox="0 0 151.04036048055895 158.39191898578665" height="158.39191898578665" width="151.04036048055895"><g><svg viewBox="0 0 158.39191898578665 166.10129848855323" height="158.39191898578665" width="151.04036048055895"><g transform="matrix(1,0,0,1,0,68.8910001867027)"><svg viewBox="0 0 158.39191898578665 97.21029830185053" height="97.21029830185053" width="158.39191898578665"><g id="textblocktransform"><svg viewBox="0 0 158.39191898578665 97.21029830185053" height="97.21029830185053" width="158.39191898578665" id="textblock"><g><svg viewBox="0 0 158.39191898578665 55.91998595676544" height="55.91998595676544" width="158.39191898578665"><g transform="matrix(1,0,0,1,0,0)"><svg width="158.39191898578665" viewBox="0.8500000238418579 -37.849998474121094 109.8800048828125 38.79999923706055" height="55.91998595676544" data-palette-color="#152232"><g transform="matrix(1,0,0,1,0,0)"><g><svg width="0" viewBox="0 0 0 0" height="7.337000000000001" data-palette-color="#152232" id="scriptelement" x="110.7300033569336" y="-37.849998474121094"><path d="M0 0" opacity="1" transform="matrix(1,0,0,1,0,0)" fill="#152232" class="undefined-123" id="p-123"></path></svg></g></g><path d="M12.9 0Q12.1 0 11.73-0.3 11.35-0.6 11.35-1.3L11.35-1.3 11.35-7.85Q10.7-8.3 8.9-8.65 7.1-9 5.5-9.1L5.5-9.1Q4.95-8.05 4.7-6.55L4.7-6.55 4.5-5.55Q4.45-5.2 4.2-4 3.95-2.8 3.65-1.93 3.35-1.05 3.05-0.55L3.05-0.55Q1.15-0.55 0.85-1.55L0.85-1.55Q1.4-2.35 2.1-6.25L2.1-6.25 3.75-15.4Q4.85-21.9 5.78-26.5 6.7-31.1 7.75-34.2L7.75-34.2Q8.9-37.65 9.95-37.65L9.95-37.65Q11-37.65 11.55-37.25L11.55-37.25Q11.55-35.25 12.5-27.6L12.5-27.6Q13.5-20.1 13.5-17.35L13.5-17.35Q13.5-14.7 14.05-9.75L14.05-9.75Q14.55-4.7 14.55-1.7L14.55-1.7Q14.55 0 12.9 0L12.9 0ZM10.3-10.75Q10.7-10.75 11.3-10.9L11.3-10.9Q11.15-13.1 10.8-16.35L10.8-16.35Q9.65-27.65 9.65-30.2L9.65-30.2 9.65-30.6Q9.15-30.1 8.28-26.08 7.4-22.05 6.65-17.45 5.9-12.85 5.85-11.35L5.85-11.35Q7.95-10.75 10.3-10.75L10.3-10.75ZM22.85 0.65Q22.2 0.65 21.67 0.2 21.15-0.25 21.1-0.9L21.1-0.9 21.1-2.2 21.1-3.2Q21.05-3.65 21.05-4.25L21.05-4.25Q21.05-5.3 20.9-7.45L20.9-7.45 20.8-10.65Q20.8-13.1 20.95-17.95L20.95-17.95Q21.15-22.3 21.15-25.25L21.15-25.25Q21.15-25.95 21-27.35L21-27.35Q20.85-28.8 20.85-29.45L20.85-29.45Q20.85-33 22.95-33L22.95-33Q24.6-33 26.77-32.35 28.95-31.7 28.95-30.8L28.95-30.8Q28.95-30.3 28.52-29.88 28.1-29.45 27.5-29.2L27.5-29.2Q25.4-29.95 23.7-30.2L23.7-30.2Q23.75-29.45 23.75-28.05L23.75-28.05Q23.75-26.05 23.7-24.45L23.7-24.45Q23.55-22.05 23.55-20.85L23.55-20.85 23.7-20.05 24.5-20.1Q24.9-20.15 25.5-20.15L25.5-20.15Q27.9-20.15 27.9-18.75L27.9-18.75Q27.9-18.2 27.45-17.82 27-17.45 26.3-17.45L26.3-17.45Q25.4-17.45 24.9-17.55L24.9-17.55 23.65-17.55Q23.75-16.25 23.75-13.75L23.75-13.75Q23.75-11.25 23.7-9.25L23.7-9.25Q23.55-6.2 23.55-4.7L23.55-4.7Q23.55-1.9 23.65-1.9L23.65-1.9 25.3-1.95Q26.15-2 27.35-2L27.35-2Q29.25-2 29.25-0.8L29.25-0.8Q29.25-0.1 28.62 0.28 28 0.65 27.1 0.65L27.1 0.65 22.85 0.65ZM43.49 0.85Q42.39 0.85 41.49-1.55L41.49-1.55Q40.44-4.15 39.94-6.9L39.94-6.9 39.59-8.6Q38.14-15.75 37.74-16.75L37.74-16.75 37.14-16.75Q37.14-15.3 37.09-14.1L37.09-14.1 37.09-11.35Q37.09-4.65 38.04-0.9L38.04-0.9 37.49 0.45 36.09 0.45 35.44-0.3 35.49-3.65Q35.49-8.15 35.04-17.3L35.04-17.3Q34.64-27.05 34.64-30.95L34.64-30.95Q34.64-33.35 36.29-33.35L36.29-33.35Q38.99-33.35 40.72-31.95 42.44-30.55 42.44-28.05L42.44-28.05 42.44-24.55Q42.44-23.8 42.19-22.83 41.94-21.85 41.64-21.25L41.64-21.25 40.69-19.45 39.89-17.95 40.14-16.75 40.84-13.2Q41.55-9.35 42.19-6.95 42.84-4.55 43.8-2.6L43.8-2.6 44.09-2Q44.59-1 44.59-0.4L44.59-0.4Q44.59 0.1 44.3 0.48 43.99 0.85 43.49 0.85L43.49 0.85ZM37.34-19.2Q38.44-19.75 39.22-22.23 39.99-24.7 39.99-26.8L39.99-26.8Q39.99-28.4 39.59-29.8L39.59-29.8Q39.34-30.6 38.77-31.03 38.19-31.45 37.34-31.45L37.34-31.45 37.24-31.2 37.14-30.75 37.24-24.85Q37.34-22.25 37.34-19.2L37.34-19.2ZM55.34 0.95Q54.04 0.95 52.94 0.13 51.84-0.7 51.14-2.1L51.14-2.1Q49.69-5.15 49.34-8.75L49.34-8.75Q48.89-12.15 48.89-15.3L48.89-15.3Q48.89-15.9 48.94-16.3L48.94-16.3 48.94-17.2Q48.94-17.45 48.89-17.45L48.89-17.45 48.89-18.35 48.94-21.85Q48.99-23.45 49.34-26.95L49.34-26.95Q49.59-29.35 50.49-31.6L50.49-31.6Q50.84-32.6 51.39-33.13 51.94-33.65 52.64-33.65L52.64-33.65Q54.64-33.65 56.24-32.93 57.84-32.2 58.94-30.9L58.94-30.9Q59.94-29.65 60.64-27.83 61.34-26 61.64-23.95L61.64-23.95Q61.94-21.85 61.94-19.5L61.94-19.5 61.94-19.1Q61.94-17.55 61.99-16.3L61.99-16.3 62.04-13.45Q62.04 0.95 55.34 0.95L55.34 0.95ZM55.14-1.15Q56.04-1.15 56.79-1.88 57.54-2.6 57.94-3.85L57.94-3.85Q58.89-6.4 59.09-9.35L59.09-9.35Q59.34-11.9 59.34-13.75L59.34-13.75Q59.34-16 58.99-19.65L58.99-19.65Q58.69-23.5 58.69-25.4L58.69-25.4 58.69-26.3Q58.59-28.2 57.42-29.6 56.24-31 54.54-31L54.54-31Q52.84-31 52.29-29.05L52.29-29.05Q51.79-27.5 51.79-25.05L51.79-25.05Q51.79-24.1 51.84-23.45L51.84-23.45 51.84-22.1 51.74-19.8Q51.64-18.75 51.64-17.5L51.64-17.5Q51.64-14.8 51.79-12.15L51.79-12.15Q51.99-8.4 52.79-4.85L52.79-4.85Q53.59-1.15 55.14-1.15L55.14-1.15ZM76.19 0.75Q75.54 0.75 75.22 0.28 74.89-0.2 74.89-0.9L74.89-0.9Q74.89-11.35 74.49-18.55L74.49-18.55Q73.29-18.75 72.79-18.75L72.79-18.75Q70.74-18.75 69.84-18.4L69.84-18.4Q69.84-15.6 70.29-9.95L70.29-9.95Q70.69-3.95 70.69-1.45L70.69-1.45Q70.69-0.95 70.39-0.53 70.09-0.1 69.64-0.1L69.64-0.1Q68.99-0.1 68.44-2.4L68.44-2.4Q67.64-5.8 67.14-16.65L67.14-16.65Q66.79-24 66.79-32.45L66.79-32.45Q66.74-34 66.74-36.85L66.74-36.85Q66.74-37.75 67.59-37.75L67.59-37.75Q68.09-37.75 68.61-37.5 69.14-37.25 69.39-36.95L69.39-36.95Q69.19-35.35 69.19-33.2L69.19-33.2Q69.19-31.1 69.39-28.1L69.39-28.1Q69.54-24.65 69.54-22.9L69.54-22.9 69.54-22Q69.49-21.6 69.49-21.05L69.49-21.05Q69.49-20.55 69.59-19.75L69.59-19.75Q69.89-19.75 70.59-19.8 71.29-19.85 71.99-19.95L71.99-19.95Q73.64-20.1 74.44-20.1L74.44-20.1Q74.44-24.45 74.34-28.15L74.34-28.15 74.24-36.5 74.24-37.85Q74.89-37.85 75.39-37.63 75.89-37.4 76.14-37.05L76.14-37.05Q76.59-36.5 76.69-35.15L76.69-35.15 76.69-34Q76.69-29.7 77.19-17.55L77.19-17.55Q77.64-6.55 77.64-1.05L77.64-1.05Q77.64-0.35 77.22 0.2 76.79 0.75 76.19 0.75L76.19 0.75ZM89.34 0.75Q88.14 0.75 87.19 0.23 86.24-0.3 85.64-1.3L85.64-1.3Q84.44-3.4 84.09-6.05L84.09-6.05Q83.74-8.35 83.74-11.55L83.74-11.55Q83.59-16.95 83.59-24.75L83.59-24.75 83.54-28.6Q83.49-28.9 83.49-29.6L83.49-29.6Q83.39-31.5 83.39-31.9L83.39-31.9Q83.84-32.95 84.44-32.95L84.44-32.95Q85.04-32.95 85.51-32.05 85.99-31.15 85.99-30.1L85.99-30.1 85.99-16.5Q85.99-14.5 86.34-11.2L86.34-11.2Q86.69-7.1 86.69-5.9L86.69-5.9Q86.69-2.2 89.84-2.2L89.84-2.2Q93.44-2.2 93.44-29.1L93.44-29.1 93.44-31.9 93.44-32.35Q93.39-32.5 93.39-32.75L93.39-32.75Q93.39-33.35 93.66-33.63 93.94-33.9 94.74-33.9L94.74-33.9Q95.39-33.9 95.76-33.52 96.14-33.15 96.24-32.65L96.24-32.65Q96.29-32.35 96.29-31.5L96.29-31.5Q96.29-30.7 96.14-28.95L96.14-28.95Q95.94-27.5 95.94-26.45L95.94-26.45Q95.94-25.3 95.84-24.4L95.84-24.4 95.74-22.3 95.74-21.9Q95.79-21.7 95.79-21.45L95.79-21.45Q95.79 0.75 89.34 0.75L89.34 0.75ZM104.33 0.65Q103.69 0.65 103.16 0.2 102.64-0.25 102.58-0.9L102.58-0.9 102.58-2.2 102.58-3.2Q102.53-3.65 102.53-4.25L102.53-4.25Q102.53-5.3 102.39-7.45L102.39-7.45 102.28-10.65Q102.28-13.1 102.44-17.95L102.44-17.95Q102.64-22.3 102.64-25.25L102.64-25.25Q102.64-25.95 102.48-27.35L102.48-27.35Q102.33-28.8 102.33-29.45L102.33-29.45Q102.33-33 104.44-33L104.44-33Q106.08-33 108.26-32.35 110.44-31.7 110.44-30.8L110.44-30.8Q110.44-30.3 110.01-29.88 109.59-29.45 108.98-29.2L108.98-29.2Q106.89-29.95 105.19-30.2L105.19-30.2Q105.23-29.45 105.23-28.05L105.23-28.05Q105.23-26.05 105.19-24.45L105.19-24.45Q105.03-22.05 105.03-20.85L105.03-20.85 105.19-20.05 105.98-20.1Q106.39-20.15 106.98-20.15L106.98-20.15Q109.39-20.15 109.39-18.75L109.39-18.75Q109.39-18.2 108.94-17.82 108.48-17.45 107.78-17.45L107.78-17.45Q106.89-17.45 106.39-17.55L106.39-17.55 105.14-17.55Q105.23-16.25 105.23-13.75L105.23-13.75Q105.23-11.25 105.19-9.25L105.19-9.25Q105.03-6.2 105.03-4.7L105.03-4.7Q105.03-1.9 105.14-1.9L105.14-1.9 106.78-1.95Q107.64-2 108.84-2L108.84-2Q110.73-2 110.73-0.8L110.73-0.8Q110.73-0.1 110.11 0.28 109.48 0.65 108.59 0.65L108.59 0.65 104.33 0.65Z" opacity="1" transform="matrix(1,0,0,1,0,0)" fill="#152232" class="undefined-text-0" data-fill-palette-color="primary" id="text-0"></path></svg></g></svg></g><g transform="matrix(1,0,0,1,0,69.1213525614948)"><svg viewBox="0 0 158.39191898578665 28.088945740355733" height="28.088945740355733" width="158.39191898578665"><g transform="matrix(1,0,0,1,0,0)"><svg width="158.39191898578665" viewBox="3.75 -38.349998474121094 298.2699890136719 52.89999771118164" height="28.088945740355733" data-palette-color="#5ebc67"><path d="M17.2-23.35L18.35-23.35 26.8-36 35.8-36 20.4-13.85 17.95 0 8.9 0 11.35-13.85 3.75-36 13.3-36 17.2-23.35ZM43.95-24.75L43.95-24.75Q49.35-24.75 52.1-22.4L52.1-22.4Q54.25-20.55 54.25-17.25L54.25-17.25Q54.25-16.15 54-14.85L54-14.85 52.95-9Q52-3.7 48.52-1.5 45.05 0.7 39.25 0.7 33.45 0.7 30.75-1.5L30.75-1.5Q28.75-3.15 28.75-6.45L28.75-6.45Q28.75-7.6 29-9L29-9 30.05-14.85Q31.8-24.75 43.95-24.75ZM44.65-10.1L45.3-13.85Q45.4-14.35 45.4-15.13 45.4-15.9 44.75-16.85 44.1-17.8 42.47-17.8 40.85-17.8 39.75-16.73 38.65-15.65 38.35-13.85L38.35-13.85 37.7-10.1Q37.6-9.6 37.6-8.83 37.6-8.05 38.25-7.15 38.9-6.25 40.52-6.25 42.15-6.25 43.25-7.38 44.35-8.5 44.65-10.1L44.65-10.1ZM81.3-7.7L81.3-7.7Q81.3-6.4 82.62-6.4 83.95-6.4 84.84-6.9L84.84-6.9 84.59-1.25Q82.2 0.7 79.2 0.7L79.2 0.7Q73.55 0.7 73.05-3.65L73.05-3.65Q70.05 0.7 64.97 0.7 59.9 0.7 58.4-1.6L58.4-1.6Q57.4-3.05 57.4-4.9 57.4-6.75 57.7-8.3L57.7-8.3 60.5-24.05 69-24.05 66.65-10.75Q66.5-9.85 66.5-8.95L66.5-8.95Q66.5-6.55 69.2-6.55L69.2-6.55Q71.45-6.55 72.8-8.1L72.8-8.1 75.65-24.05 84.15-24.05 81.34-8.3Q81.3-8 81.3-7.7ZM112.19-18.95L112.19-18.95Q112.19-17.25 111.62-15.65 111.04-14.05 110.49-13.3L110.49-13.3 109.94-12.6 102.39-12.6Q103.64-13.75 103.64-15.45L103.64-15.45Q103.64-16.35 103.07-16.93 102.49-17.5 101.49-17.5L101.49-17.5Q99.79-17.5 98.54-15.8L98.54-15.8 95.74 0 87.24 0 91.49-24.05 99.39-24.05 98.79-20.7Q101.64-24.75 105.69-24.75L105.69-24.75Q108.94-24.75 110.57-23.2 112.19-21.65 112.19-18.95ZM152.79 0L143.29 0 143.59-7.85 135.24-7.85 132.79 0 123.24 0 136.09-36 152.59-36 152.79 0ZM144.39-27.25L141.24-27.25 137.29-14.55 143.84-14.55 144.39-27.25ZM168.24-6.4L168.24-6.4Q169.39-6.4 170.28-6.9L170.28-6.9 170.03-1.25Q167.69 0.7 164.69 0.7L164.69 0.7Q160.14 0.7 158.78-1.4L158.78-1.4Q157.89-2.8 157.89-4.38 157.89-5.95 158.09-7.15L158.09-7.15 161.09-24.05 169.59-24.05 166.78-8.3Q166.74-8 166.74-7.75L166.74-7.75Q166.74-6.4 168.24-6.4ZM162.09-32.2L162.09-32.2Q162.09-35.4 163.51-36.88 164.94-38.35 167.94-38.35L167.94-38.35Q172.14-38.35 172.14-34.65L172.14-34.65Q172.14-31.5 170.71-30.05 169.28-28.6 166.24-28.6L166.24-28.6Q162.09-28.6 162.09-32.2ZM197.58-18.95L197.58-18.95Q197.58-17.25 197.01-15.65 196.43-14.05 195.88-13.3L195.88-13.3 195.33-12.6 187.78-12.6Q189.03-13.75 189.03-15.45L189.03-15.45Q189.03-16.35 188.46-16.93 187.88-17.5 186.88-17.5L186.88-17.5Q185.18-17.5 183.93-15.8L183.93-15.8 181.13 0 172.63 0 176.88-24.05 184.78-24.05 184.18-20.7Q187.03-24.75 191.08-24.75L191.08-24.75Q194.33-24.75 195.96-23.2 197.58-21.65 197.58-18.95ZM238.18 0L228.68 0 228.98-7.85 220.63-7.85 218.18 0 208.63 0 221.48-36 237.98-36 238.18 0ZM229.78-27.25L226.63-27.25 222.68-14.55 229.23-14.55 229.78-27.25ZM252.38-7.7L252.38-7.7Q252.38-6.4 253.7-6.4 255.03-6.4 255.93-6.9L255.93-6.9 255.68-1.25Q253.28 0.7 250.28 0.7L250.28 0.7Q245.73 0.7 244.38-1.4L244.38-1.4Q243.53-2.75 243.53-4.35 243.53-5.95 243.73-7.15L243.73-7.15 249.18-37.95 257.68-37.95 252.43-8.3Q252.38-8 252.38-7.7ZM268.32-7.7L268.32-7.7Q268.32-6.4 269.65-6.4 270.97-6.4 271.87-6.9L271.87-6.9 271.62-1.25Q269.22 0.7 266.22 0.7L266.22 0.7Q261.67 0.7 260.32-1.4L260.32-1.4Q259.47-2.75 259.47-4.35 259.47-5.95 259.67-7.15L259.67-7.15 265.12-37.95 273.62-37.95 268.37-8.3Q268.32-8 268.32-7.7ZM286.87-24.05L284.52-10.75Q284.37-9.85 284.37-8.95L284.37-8.95Q284.37-6.55 287.07-6.55L287.07-6.55Q289.27-6.55 290.72-8.1L290.72-8.1 293.52-24.05 302.02-24.05 297.62 0.8Q296.52 7.15 292.6 10.85 288.67 14.55 283.62 14.55 278.57 14.55 276.35 12.7 274.12 10.85 274.12 7.85L274.12 7.85Q274.12 3.6 279.37 0.3L279.37 0.3Q276.52-0.4 275.77-2.55L275.77-2.55Q275.32-3.75 275.32-5.25 275.32-6.75 275.57-8.3L275.57-8.3 278.37-24.05 286.87-24.05ZM284.77 7.4L284.77 7.4Q288.02 7.4 289.02 1.5L289.02 1.5 289.52-1.4Q282.57 1.85 282.57 5.15L282.57 5.15Q282.57 6.15 283.14 6.78 283.72 7.4 284.77 7.4Z" opacity="1" transform="matrix(1,0,0,1,0,0)" fill="#5ebc67" class="undefined-text-1" data-fill-palette-color="secondary" id="text-1"></path></svg></g></svg></g></svg></g></svg></g><g transform="matrix(1,0,0,1,42.48863226793726,0)"><svg viewBox="0 0 73.41465444991212 55.68963358197334" height="55.68963358197334" width="73.41465444991212"><g><svg xmlns="http://www.w3.org/2000/svg" xmlns:xlink="http://www.w3.org/1999/xlink" version="1.1" x="0" y="0" viewBox="15 23.454025268554688 70 53.099403381347656" enable-background="new 0 0 100 100" xml:space="preserve" height="55.68963358197334" width="73.41465444991212" class="icon-icon-0" data-fill-palette-color="accent" id="icon-0"><path fill="#5ebc67" d="M33.5 36.5c-4.581 0.639-18.5-4-18.5-4v-5c0 0 13.919 4.639 18.5 4 8.407-1.173 24.57-6.993 33-8 4.593-0.549 18.5 4 18.5 4v5c0 0-13.907-4.549-18.5-4C58.07 29.507 41.907 35.327 33.5 36.5z" data-fill-palette-color="accent"></path><path fill="#5ebc67" d="M33.5 46.493c-4.581 0.639-18.5-4-18.5-4v-5c0 0 13.919 4.639 18.5 4 8.407-1.173 24.57-6.993 33-8 4.593-0.549 18.5 4 18.5 4v5c0 0-13.907-4.549-18.5-4C58.07 39.5 41.907 45.32 33.5 46.493z" data-fill-palette-color="accent"></path><path fill="#5ebc67" d="M33.5 56.493c-4.581 0.639-18.5-4-18.5-4v-5c0 0 13.919 4.639 18.5 4 8.407-1.173 24.57-6.994 33-8 4.593-0.549 18.5 4 18.5 4v5c0 0-13.907-4.549-18.5-4C58.07 49.5 41.907 55.32 33.5 56.493z" data-fill-palette-color="accent"></path><path fill="#5ebc67" d="M33.5 66.493c-4.581 0.639-18.5-4-18.5-4v-5c0 0 13.919 4.639 18.5 4 8.407-1.173 24.57-6.993 33-8 4.593-0.549 18.5 4 18.5 4v5c0 0-13.907-4.549-18.5-4C58.07 59.5 41.907 65.32 33.5 66.493z" data-fill-palette-color="accent"></path><path fill="#5ebc67" d="M33.5 76.493c-4.581 0.639-18.5-4-18.5-4v-5c0 0 13.919 4.639 18.5 4 8.407-1.173 24.57-6.993 33-8 4.593-0.549 18.5 4 18.5 4v5c0 0-13.907-4.549-18.5-4C58.07 69.5 41.907 75.32 33.5 76.493z" data-fill-palette-color="accent"></path></svg></g></svg></g><g></g></svg></g></svg></g></svg></g><path d="M8.588 184.698c-0.103-0.342-0.113-0.61-0.031-0.804 0.08-0.2 0.269-0.345 0.566-0.435v0l4.193-1.263c0.104-0.334 0.114-0.907 0.031-1.72-0.077-0.815-0.199-1.57-0.366-2.266v0c-0.515-0.098-1.108-0.103-1.779-0.014v0l-0.679 0.057c-0.154 0.025-0.506 0.061-1.056 0.107-0.541 0.05-1.018 0.067-1.432 0.051-0.413-0.016-0.745-0.054-0.994-0.112v0c-0.245-0.813-0.174-1.349 0.213-1.606v0c0.412 0.129 1.497 0.095 3.253-0.104v0l6.166-0.706c2.916-0.372 5.415-0.653 7.498-0.844 2.081-0.198 3.85-0.273 5.307-0.227v0c1.613 0.049 2.487 0.296 2.621 0.742v0c0.136 0.452 0.155 0.819 0.057 1.102v0c-0.852 0.257-2.85 1.08-5.993 2.472v0c-3.067 1.389-5.187 2.26-6.362 2.614v0c-1.13 0.34-2.715 0.945-4.756 1.813v0c-2.085 0.861-3.77 1.485-5.054 1.871v0c-0.723 0.218-1.19-0.025-1.403-0.728zM14.961 180.961c0.053 0.174 0.15 0.381 0.292 0.62v0c0.916-0.347 2.046-0.803 3.389-1.37v0c4.674-1.943 7.553-3.078 8.638-3.405v0l0.261-0.079c-0.277-0.149-1.331-0.152-3.16-0.009-1.83 0.143-3.774 0.349-5.834 0.617-2.058 0.275-3.41 0.496-4.057 0.663v0c0.012 0.975 0.169 1.963 0.471 2.963zM35.085 231.996c-0.184-0.215-0.277-0.478-0.277-0.788 0-0.311 0.1-0.566 0.302-0.766v0l0.66-0.566 0.506-0.435c0.14-0.147 0.313-0.308 0.518-0.484v0c0.353-0.303 0.87-0.792 1.552-1.467v0l1.581-1.451c0.823-0.707 2.078-1.74 3.763-3.098v0c1.525-1.194 2.786-2.219 3.784-3.076v0c0.235-0.202 0.569-0.533 1-0.992v0c0.447-0.473 0.781-0.804 1-0.993v0c1.197-1.028 2.1-1.186 2.711-0.475v0c0.479 0.557 0.924 1.299 1.337 2.224 0.408 0.92 0.461 1.51 0.16 1.769v0c-0.169 0.145-0.386 0.207-0.653 0.187-0.266-0.02-0.528-0.093-0.786-0.217v0c-0.355-0.93-0.737-1.717-1.148-2.361v0c-0.237 0.231-0.594 0.55-1.069 0.959v0c-0.675 0.58-1.29 1.095-1.846 1.545v0c-0.852 0.643-1.48 1.138-1.884 1.484v0l-0.34 0.426 0.365 0.379c0.134 0.125 0.289 0.29 0.465 0.495v0c0.694 0.808 0.806 1.414 0.335 1.818v0c-0.189 0.163-0.411 0.22-0.666 0.171-0.255-0.039-0.486-0.178-0.692-0.418v0c-0.259-0.302-0.446-0.55-0.56-0.745v0l-0.547-0.637c-0.404 0.409-1.03 0.978-1.88 1.707v0c-0.844 0.725-1.61 1.369-2.298 1.934v0c-1.072 0.832-1.861 1.465-2.367 1.9v0c-0.946 0.813-1.406 1.234-1.38 1.265v0l0.741 0.816c0.261 0.273 0.568 0.614 0.919 1.024v0c0.549 0.639 0.621 1.132 0.218 1.479v0c-0.235 0.202-0.507 0.253-0.815 0.153-0.308-0.1-0.594-0.303-0.857-0.61v0zM84.433 268.457c-0.444-0.211-0.621-0.885-0.528-2.021v0c0.078-1.247 0.28-2.472 0.605-3.675v0l0.276-1.123c0.785-3.158 1.193-4.975 1.226-5.452v0l-0.365-0.174c-0.278 0.584-0.54 1.113-0.787 1.585v0l-0.79 1.662c-1.282 2.697-2.091 4.892-2.425 6.585v0l-0.724 0.652-0.841-0.4-0.175-0.643 0.987-2.005c0.86-1.808 2.074-4.598 3.642-8.368v0c1.706-3.996 2.932-6.78 3.679-8.351v0c0.457-0.962 1.018-1.285 1.681-0.969v0c1.084 0.515 1.839 1.218 2.267 2.108 0.425 0.896 0.399 1.847-0.079 2.851v0l-1.003 2.109c-0.145 0.304-0.358 0.628-0.641 0.972-0.289 0.34-0.552 0.604-0.789 0.789v0l-1.083 0.818-0.914 0.674-0.197 0.791-0.591 2.35c-0.455 1.68-0.782 3.066-0.98 4.158-0.196 1.086-0.291 2.112-0.287 3.077v0l0.009 0.452c0.01 0.497-0.043 0.868-0.159 1.112v0c-0.096 0.201-0.239 0.345-0.43 0.433-0.188 0.097-0.383 0.098-0.584 0.003zM86.465 254.598c0.552-0.014 1.218-0.443 2.001-1.288 0.785-0.851 1.379-1.699 1.781-2.546v0c0.304-0.639 0.511-1.28 0.622-1.921v0c0.05-0.372 0-0.698-0.151-0.978-0.15-0.28-0.396-0.502-0.736-0.664v0l-0.129 0.129-0.19 0.234-1.629 3.593c-0.461 1.065-0.984 2.212-1.569 3.441zM138.945 279.999c-0.58-0.011-1.112-0.206-1.598-0.586-0.478-0.373-0.867-0.876-1.165-1.508v0c-0.622-1.367-0.995-2.854-1.12-4.461v0c-0.174-1.52-0.248-2.981-0.221-4.384v0c0.005-0.263 0.019-0.485 0.043-0.667v0l0.011-0.596c0.002-0.115-0.007-0.172-0.027-0.172v0l0.011-0.597 0.074-2.345c0.033-0.707 0.146-1.841 0.337-3.402v0c0.128-1.063 0.403-2.093 0.826-3.09v0c0.163-0.442 0.368-0.775 0.616-0.999 0.247-0.231 0.529-0.344 0.845-0.339v0c0.89 0.017 1.685 0.193 2.387 0.531 0.708 0.337 1.303 0.8 1.785 1.388v0c0.435 0.561 0.799 1.252 1.094 2.074 0.295 0.815 0.501 1.682 0.619 2.601v0c0.117 0.933 0.166 1.925 0.146 2.976v0l-0.005 0.263c-0.013 0.694-0.015 1.318-0.004 1.871v0l0.005 1.901c-0.12 6.417-1.673 9.597-4.66 9.541zM138.839 278.591c0.398 0.007 0.768-0.147 1.112-0.464 0.336-0.317 0.601-0.751 0.792-1.3v0c0.446-1.131 0.725-2.353 0.838-3.666v0c0.129-1.13 0.201-2.107 0.216-2.929v0c0.019-1.004-0.034-2.32-0.158-3.947v0c-0.103-1.721-0.146-3.003-0.131-3.846v0l0.012-0.607c-0.025-0.843-0.294-1.583-0.808-2.22-0.514-0.63-1.149-0.952-1.904-0.966v0c-0.755-0.014-1.265 0.411-1.531 1.276v0c-0.235 0.683-0.363 1.571-0.383 2.663v0c-0.008 0.425-0.001 0.782 0.02 1.073v0l-0.017 0.9-0.099 1.535c-0.049 0.464-0.079 0.976-0.09 1.536v0c-0.022 1.2-0.014 2.39 0.025 3.57v0c0.063 1.673 0.258 3.305 0.586 4.896v0c0.32 1.651 0.827 2.483 1.52 2.496zM199.117 266.759c-0.266 0.115-0.507 0.102-0.722-0.04-0.219-0.133-0.39-0.341-0.514-0.626v0c-1.853-4.274-3.497-7.848-4.934-10.723v0c-0.523 0.131-0.887 0.241-1.092 0.33v0c-0.841 0.365-1.413 0.697-1.716 0.998v0c0.496 1.144 1.335 2.834 2.517 5.069v0c1.229 2.377 2.064 4.076 2.506 5.097v0c0.088 0.204 0.108 0.42 0.06 0.646-0.049 0.227-0.163 0.379-0.342 0.457v0c-0.266 0.115-0.717-0.248-1.353-1.089v0c-0.928-1.243-2.456-4.038-4.583-8.384v0c-1.445-2.944-2.916-6.142-4.412-9.594v0c-0.292-0.623-0.691-1.519-1.198-2.688v0c-0.158-0.365-0.064-0.622 0.283-0.772v0c0.204-0.088 0.436-0.13 0.695-0.125 0.262 0.011 0.469 0.057 0.622 0.138v0c0.204 0.69 0.496 1.475 0.877 2.353v0c0.37 0.854 0.862 1.878 1.475 3.074v0c0.67 1.377 1.161 2.425 1.473 3.142v0l0.241 0.557c0.051 0.169 0.125 0.365 0.221 0.587v0c0.088 0.204 0.222 0.462 0.402 0.774v0c0.124-0.054 0.324-0.151 0.6-0.293 0.283-0.145 0.557-0.3 0.823-0.467v0c0.647-0.354 1.135-0.602 1.463-0.744v0c-0.769-1.775-1.504-3.411-2.205-4.908v0l-2.281-5.084-0.362-0.835c0.266-0.115 0.521-0.171 0.766-0.166 0.244 0.004 0.45 0.055 0.617 0.151v0c0.285 0.148 0.565 0.49 0.84 1.024v0l0.306 0.706c0.761 1.757 2.321 5.074 4.678 9.952v0c2.132 4.41 3.686 7.741 4.662 9.992v0c0.123 0.285 0.147 0.576 0.07 0.874-0.074 0.304-0.235 0.51-0.483 0.617zM244.33 232.71c-0.356 0.397-0.763 0.674-1.222 0.833-0.459 0.159-0.942 0.187-1.449 0.086v0c-1.058-0.224-2.077-0.672-3.059-1.345v0c-0.866-0.569-1.829-1.328-2.888-2.277v0c-1.837-1.556-4.048-3.494-6.633-5.811v0l-1.94-1.699c-0.113-0.065-0.288-0.204-0.524-0.415v0c-0.654-0.532-1.049-0.859-1.185-0.981v0c-0.211-0.461-0.229-0.79-0.054-0.986v0c0.18-0.201 0.49-0.244 0.931-0.129 0.44 0.105 0.833 0.313 1.18 0.623v0l6.769 6.069c0.663 0.594 1.593 1.324 2.79 2.189v0c1.464 1.104 2.394 1.834 2.79 2.19v0c1.23 1.103 2.313 1.132 3.249 0.088v0c1.071-1.195-2.855-5.793-11.78-13.795v0l-1.392-1.249-0.219-0.195c-0.064-0.03-0.138-0.083-0.223-0.16v0c-0.196-0.176-0.301-0.351-0.315-0.527-0.009-0.171 0.105-0.39 0.343-0.656v0c0.194-0.216 0.407-0.328 0.641-0.336 0.238-0.013 0.456 0.037 0.653 0.151v0c0.114 0.075 0.311 0.238 0.592 0.49v0c0.266 0.239 0.665 0.642 1.197 1.21v0c0.423 0.497 0.811 0.903 1.162 1.218v0c0.376 0.338 0.699 0.659 0.969 0.964v0l1.006 0.984 0.196 0.175c0.079 0.043 0.161 0.103 0.246 0.18v0c7.363 6.602 10.086 10.972 8.169 13.111zM272.59 182.432c-0.086 0.27-0.261 0.486-0.526 0.65-0.264 0.163-0.535 0.211-0.81 0.144v0l-0.829-0.264-0.635-0.203c-0.199-0.042-0.427-0.104-0.684-0.187v0c-0.443-0.141-1.131-0.326-2.063-0.552v0l-2.064-0.585c-1.034-0.33-2.571-0.856-4.612-1.579v0c-1.816-0.672-3.351-1.208-4.603-1.608v0c-0.295-0.094-0.752-0.205-1.37-0.331v0c-0.637-0.133-1.094-0.243-1.37-0.331v0c-1.503-0.48-2.112-1.166-1.826-2.059v0c0.224-0.7 0.621-1.468 1.192-2.305 0.569-0.83 1.044-1.185 1.422-1.063v0c0.212 0.068 0.379 0.22 0.502 0.457 0.122 0.237 0.198 0.499 0.227 0.784v0c-0.606 0.79-1.075 1.528-1.408 2.215v0c0.321 0.081 0.78 0.217 1.378 0.407v0c0.848 0.271 1.609 0.524 2.283 0.761v0c0.994 0.388 1.745 0.663 2.252 0.826v0l0.542 0.066 0.131-0.51c0.036-0.18 0.095-0.398 0.177-0.654v0c0.324-1.015 0.781-1.428 1.372-1.239v0c0.238 0.076 0.403 0.235 0.495 0.476 0.101 0.237 0.103 0.507 0.007 0.809v0c-0.121 0.379-0.235 0.668-0.34 0.868v0l-0.256 0.8c0.56 0.129 1.373 0.364 2.44 0.704v0c1.06 0.338 2.01 0.652 2.851 0.943v0c1.27 0.476 2.223 0.816 2.86 1.019v0c1.188 0.379 1.788 0.55 1.8 0.511v0l0.306-1.059c0.096-0.366 0.225-0.806 0.39-1.32v0c0.256-0.803 0.638-1.123 1.145-0.961v0c0.295 0.094 0.481 0.299 0.558 0.614 0.076 0.315 0.053 0.665-0.07 1.049v0z" fill="#5ebc67" data-fill-palette-color="accent"></path><path d="M31.933 101.669C31.824 102.03 31.676 102.274 31.489 102.401 31.303 102.527 31.052 102.543 30.735 102.447V102.447L26.304 101.101C26.014 101.337 25.665 101.837 25.257 102.601 24.855 103.367 24.523 104.101 24.261 104.803V104.803C24.655 105.198 25.174 105.553 25.818 105.868V105.868L26.455 106.209C26.601 106.282 26.929 106.455 27.438 106.73 27.944 107.01 28.374 107.278 28.726 107.533 29.085 107.79 29.357 108.02 29.541 108.224V108.224C29.281 109.082 28.904 109.51 28.412 109.509V109.509C28.127 109.147 27.152 108.541 25.487 107.691V107.691L19.632 104.698C16.854 103.312 14.49 102.094 12.541 101.044 10.595 100.003 8.995 99.031 7.74 98.128V98.128C6.342 97.14 5.716 96.408 5.861 95.93V95.93C6.004 95.459 6.203 95.129 6.458 94.938V94.938C7.361 95.213 9.6 95.657 13.176 96.27V96.27C16.7 96.847 19.081 97.323 20.32 97.699V97.699C21.513 98.062 23.263 98.459 25.569 98.892V98.892C27.915 99.357 29.765 99.796 31.12 100.207V100.207C31.887 100.44 32.158 100.927 31.933 101.669ZM24.122 101.221C24.177 101.04 24.213 100.805 24.231 100.514V100.514C23.218 100.277 21.955 100.017 20.442 99.734V99.734C15.189 98.703 11.989 98.013 10.84 97.664V97.664L10.569 97.582C10.727 97.876 11.652 98.495 13.345 99.439 15.036 100.389 16.869 101.347 18.845 102.314 20.818 103.286 22.137 103.884 22.802 104.107V104.107C23.361 103.241 23.801 102.279 24.122 101.221ZM54.496 63.606C54.299 63.836 54.039 63.977 53.718 64.03 53.397 64.083 53.112 64.016 52.864 63.829V63.829L52.166 63.229 51.63 62.767C51.454 62.651 51.258 62.501 51.044 62.316V62.316C50.666 61.991 50.071 61.524 49.261 60.916V60.916L47.497 59.492C46.623 58.74 45.342 57.594 43.654 56.052V56.052C42.162 54.644 40.889 53.487 39.836 52.582V52.582C39.586 52.366 39.188 52.069 38.644 51.689V51.689C38.079 51.301 37.679 51.006 37.444 50.804V50.804C36.177 49.714 35.866 48.793 36.512 48.042V48.042C37.018 47.454 37.72 46.871 38.618 46.292 39.521 45.717 40.134 45.568 40.456 45.845V45.845C40.635 45.999 40.735 46.214 40.755 46.489 40.777 46.775 40.741 47.064 40.649 47.358V47.358C39.732 47.876 38.968 48.402 38.358 48.935V48.935C38.641 49.144 39.033 49.463 39.534 49.894V49.894C40.25 50.51 40.885 51.074 41.44 51.587V51.587C42.249 52.372 42.868 52.949 43.298 53.318V53.318L43.793 53.611 44.139 53.162C44.242 53.001 44.386 52.814 44.57 52.599V52.599C45.309 51.74 45.929 51.527 46.429 51.957V51.957C46.629 52.129 46.727 52.351 46.723 52.624 46.715 52.902 46.604 53.166 46.388 53.416V53.416C46.111 53.738 45.878 53.973 45.688 54.121V54.121L45.115 54.788C45.611 55.152 46.306 55.719 47.2 56.489V56.489C48.089 57.254 48.883 57.954 49.581 58.59V58.59C50.63 59.582 51.421 60.306 51.953 60.764V60.764C52.954 61.625 53.47 62.038 53.501 62.003V62.003L54.237 61.101C54.48 60.777 54.786 60.4 55.156 59.971V59.971C55.736 59.296 56.241 59.144 56.67 59.513V59.513C56.92 59.728 57.018 60.003 56.961 60.337 56.901 60.676 56.732 61.007 56.455 61.329V61.329ZM96.234 33.394C95.765 33.617 95.097 33.311 94.23 32.477V32.477C93.258 31.581 92.388 30.599 91.619 29.531V29.531L90.873 28.553C88.81 25.802 87.592 24.254 87.219 23.909V23.909L86.836 24.091C87.128 24.706 87.387 25.274 87.612 25.794V25.794L88.446 27.547C89.804 30.402 91.064 32.531 92.224 33.935V33.935L92.277 34.963 91.391 35.384 90.745 35.109 89.765 32.955C88.853 31.038 87.374 28.18 85.328 24.383V24.383C83.183 20.312 81.714 17.446 80.924 15.784V15.784C80.437 14.761 80.547 14.082 81.253 13.746V13.746C82.397 13.202 83.48 13.053 84.5 13.299 85.521 13.545 86.284 14.201 86.791 15.266V15.266L87.856 17.503C88.006 17.82 88.125 18.211 88.213 18.677 88.306 19.14 88.35 19.53 88.343 19.846V19.846L88.279 21.288 88.224 22.49 88.753 23.179 90.278 25.231C91.355 26.726 92.274 27.92 93.035 28.813 93.801 29.702 94.583 30.465 95.378 31.102V31.102L95.752 31.394C96.168 31.719 96.437 32.009 96.559 32.265V32.265C96.66 32.478 96.684 32.694 96.632 32.913 96.579 33.132 96.447 33.293 96.234 33.394ZM86.221 22.469C86.576 22.009 86.668 21.174 86.496 19.964 86.323 18.755 86.024 17.702 85.599 16.808V16.808C85.274 16.126 84.886 15.53 84.435 15.021V15.021C84.169 14.729 83.871 14.55 83.541 14.483 83.204 14.419 82.857 14.473 82.497 14.644V14.644L82.512 14.838 82.582 15.152 84.441 18.893C85.007 19.974 85.601 21.166 86.221 22.469ZM140.627 24.42C140.014 24.432 139.444 24.251 138.917 23.877 138.397 23.497 137.966 22.979 137.622 22.325V22.325C136.906 20.903 136.451 19.345 136.255 17.649V17.649C136.008 16.056 135.87 14.515 135.84 13.025V13.025C135.835 12.742 135.843 12.506 135.867 12.317V12.317L135.854 11.69C135.852 11.569 135.837 11.508 135.81 11.509V11.509L135.798 10.872 135.789 8.394C135.794 7.645 135.865 6.444 136.001 4.789V4.789C136.093 3.655 136.341 2.554 136.745 1.487V1.487C136.904 1.012 137.109 0.647 137.36 0.393 137.618 0.138 137.909 0.008 138.232 0.002V0.002C139.176-0.017 140.029 0.138 140.79 0.467 141.552 0.796 142.198 1.261 142.729 1.865V1.865C143.213 2.442 143.628 3.158 143.976 4.014 144.323 4.864 144.577 5.772 144.738 6.74V6.74C144.899 7.722 144.99 8.768 145.012 9.88V9.88L145.018 10.163C145.032 10.891 145.055 11.548 145.087 12.134V12.134L145.167 14.155C145.302 20.936 143.788 24.358 140.627 24.42ZM140.456 22.947C140.881 22.938 141.268 22.759 141.619 22.408 141.963 22.057 142.223 21.587 142.4 20.997V20.997C142.821 19.788 143.065 18.485 143.132 17.088V17.088C143.229 15.886 143.27 14.85 143.252 13.981V13.981C143.231 12.916 143.12 11.526 142.917 9.81V9.81C142.74 8 142.642 6.647 142.624 5.75V5.75L142.612 5.113C142.547 4.218 142.232 3.449 141.666 2.806 141.1 2.156 140.416 1.84 139.614 1.855V1.855C138.812 1.871 138.292 2.34 138.054 3.262V3.262C137.833 3.994 137.733 4.94 137.756 6.1V6.1C137.765 6.544 137.786 6.922 137.819 7.231V7.231L137.838 8.181 137.799 9.811C137.762 10.304 137.749 10.847 137.761 11.44V11.44C137.786 12.707 137.844 13.967 137.937 15.219V15.219C138.066 16.983 138.336 18.697 138.746 20.361V20.361C139.158 22.099 139.728 22.961 140.456 22.947ZM190.913 35.428C190.635 35.308 190.468 35.115 190.414 34.849 190.366 34.586 190.407 34.303 190.538 34V34C192.49 29.475 194.051 25.619 195.221 22.43V22.43C194.739 22.119 194.389 21.917 194.173 21.824V21.824C193.281 21.439 192.61 21.241 192.16 21.231V21.231C191.639 22.438 190.947 24.305 190.084 26.833V26.833C189.136 29.507 188.428 31.386 187.961 32.469V32.469C187.867 32.686 187.717 32.856 187.509 32.98 187.299 33.109 187.098 33.133 186.906 33.05V33.05C186.622 32.927 186.577 32.317 186.771 31.218V31.218C187.058 29.602 188.106 26.398 189.916 21.606V21.606C191.134 18.358 192.532 14.905 194.111 11.246V11.246C194.38 10.57 194.781 9.616 195.313 8.384V8.384C195.481 7.994 195.748 7.878 196.113 8.035V8.035C196.329 8.129 196.529 8.278 196.713 8.482 196.894 8.692 197.009 8.885 197.058 9.06V9.06C196.673 9.716 196.279 10.508 195.879 11.437V11.437C195.486 12.346 195.054 13.467 194.583 14.798V14.798C194.004 16.325 193.552 17.467 193.227 18.222V18.222L192.974 18.807C192.875 18.969 192.774 19.168 192.673 19.404V19.404C192.579 19.62 192.479 19.911 192.373 20.276V20.276C192.503 20.333 192.724 20.417 193.035 20.529 193.349 20.635 193.667 20.732 193.989 20.819V20.819C194.728 21.065 195.27 21.262 195.617 21.412V21.412C196.429 19.53 197.159 17.778 197.807 16.156V16.156L200.082 10.706 200.458 9.833C200.743 9.956 200.972 10.114 201.146 10.306 201.317 10.49 201.424 10.683 201.469 10.886V10.886C201.559 11.204 201.499 11.666 201.289 12.273V12.273L200.968 13.016C200.165 14.879 198.737 18.485 196.687 23.833V23.833C194.831 28.679 193.389 32.293 192.361 34.676V34.676C192.23 34.98 192.021 35.209 191.734 35.364 191.447 35.519 191.173 35.54 190.913 35.428ZM227.665 63.356C227.286 62.936 227.038 62.479 226.921 61.986 226.808 61.488 226.833 60.976 226.994 60.45V60.45C227.351 59.366 227.937 58.344 228.751 57.384V57.384C229.449 56.538 230.357 55.612 231.474 54.606V54.606C233.318 52.845 235.606 50.736 238.336 48.278V48.278L240.345 46.428C240.427 46.318 240.591 46.152 240.836 45.931V45.931C241.471 45.296 241.858 44.915 241.998 44.789V44.789C242.514 44.616 242.866 44.634 243.055 44.845V44.845C243.245 45.055 243.256 45.385 243.089 45.834 242.923 46.284 242.654 46.676 242.283 47.009V47.009L235.144 53.438C234.443 54.069 233.57 54.969 232.526 56.136V56.136C231.196 57.551 230.321 58.448 229.9 58.827V58.827C228.608 59.99 228.457 61.123 229.45 62.225V62.225C230.587 63.488 235.864 59.879 245.282 51.398V51.398L246.755 50.072 246.996 49.855C247.028 49.79 247.089 49.717 247.179 49.636V49.636C247.39 49.446 247.587 49.359 247.773 49.373 247.954 49.383 248.171 49.528 248.423 49.808V49.808C248.626 50.034 248.721 50.27 248.708 50.518 248.7 50.77 248.624 50.993 248.48 51.186V51.186C248.388 51.296 248.192 51.486 247.891 51.757V51.757C247.611 52.009 247.143 52.386 246.486 52.886V52.886C245.917 53.272 245.447 53.631 245.076 53.965V53.965C244.676 54.326 244.302 54.631 243.954 54.88V54.88L242.802 55.822 242.592 56.012C242.535 56.09 242.465 56.167 242.379 56.244V56.244C234.604 63.245 229.699 65.616 227.665 63.356ZM251.106 104.732C251.013 104.443 251.027 104.148 251.15 103.846 251.272 103.545 251.477 103.337 251.766 103.222V103.222L252.642 102.939 253.316 102.722C253.506 102.632 253.736 102.544 254.006 102.457V102.457C254.481 102.304 255.189 102.04 256.13 101.665V101.665L258.264 100.902C259.361 100.548 261.008 100.052 263.203 99.415V99.415C265.183 98.875 266.833 98.392 268.155 97.966V97.966C268.469 97.864 268.93 97.68 269.538 97.413V97.413C270.164 97.133 270.624 96.946 270.919 96.85V96.85C272.51 96.337 273.458 96.552 273.762 97.495V97.495C274 98.233 274.132 99.136 274.158 100.204 274.178 101.275 273.985 101.875 273.581 102.005V102.005C273.357 102.078 273.121 102.051 272.875 101.925 272.621 101.795 272.392 101.614 272.19 101.381V101.381C272.225 100.328 272.175 99.403 272.037 98.604V98.604C271.712 98.737 271.235 98.906 270.606 99.108V99.108C269.708 99.398 268.896 99.646 268.169 99.852V99.852C267.077 100.134 266.261 100.362 265.722 100.536V100.536L265.214 100.806 265.417 101.335C265.501 101.507 265.586 101.727 265.673 101.997V101.997C266.021 103.074 265.88 103.715 265.252 103.918V103.918C265.001 103.998 264.761 103.966 264.53 103.821 264.297 103.67 264.129 103.437 264.028 103.122V103.122C263.898 102.718 263.819 102.397 263.791 102.158V102.158L263.521 101.32C262.952 101.554 262.106 101.851 260.983 102.214V102.214C259.866 102.574 258.855 102.886 257.949 103.15V103.15C256.555 103.529 255.524 103.826 254.857 104.042V104.042C253.6 104.447 252.978 104.673 252.993 104.718V104.718L253.379 105.815C253.529 106.192 253.691 106.65 253.864 107.188V107.188C254.138 108.035 254.005 108.546 253.466 108.72V108.72C253.152 108.821 252.867 108.761 252.611 108.539 252.353 108.31 252.159 107.994 252.028 107.59V107.59Z" fill="#5ebc67" data-fill-palette-color="accent"></path><path d="M2.364 140.108c0-5.645 4.576-10.221 10.221-10.221 5.645 0 10.221 4.576 10.221 10.221 0 5.645-4.576 10.221-10.221 10.221-5.645 0-10.221-4.576-10.221-10.221zM257.194 140.108c0-5.645 4.576-10.221 10.221-10.221 5.645 0 10.221 4.576 10.221 10.221 0 5.645-4.576 10.221-10.221 10.221-5.645 0-10.221-4.576-10.221-10.221z" fill="#5ebc67" data-fill-palette-color="accent"></path></svg></g><defs></defs></svg><rect width="280" height="280" fill="none" stroke="none" visibility="hidden"></rect></g></svg></g></svg>